<svg xmlns="http://www.w3.org/2000/svg" viewBox="0 0 83.79 97.02"><defs><style>.cls-1{fill:#7ecaf6;stroke-width:5px;}.cls-1,.cls-2,.cls-3{stroke:#000;stroke-miterlimit:10;}.cls-2,.cls-3{stroke-width:4px;}.cls-3{fill:none;}</style></defs><title>Asset 1</title><g id="Layer_2" data-name="Layer 2"><g id="Layer_1-2" data-name="Layer 1"><path class="cls-1" d="M72.14,4.08C46.3-.35,24,4.67,17.79,17.55c-2.11,4.38-3.31,11.65-3.26,18,.09,11.9,4.57,16.17,3.26,24.7-.67,4.38-3,10.6-10.87,17.4L52.58,76.5a29.57,29.57,0,0,0,11.21-2.84c2.46-1.13,12.16-5.59,16-15.69,5-13.25-3.64-27-4.35-28.07-4.61-7-10.23-9-10.33-14.6C65,10.62,68.8,6.71,72.14,4.08Z"/><ellipse cx="49.59" cy="25.69" rx="5.71" ry="4.77"/><path class="cls-2" d="M45,69.76a52.52,52.52,0,0,1-1.63,15.72,51.58,51.58,0,0,1-3.26,9"/><path class="cls-2" d="M36,95.31a11.38,11.38,0,0,1,12,0"/><path class="cls-3" d="M81.92,88.29a21.66,21.66,0,0,0-7.07.56,22,22,0,0,0-6.52,2.81,26,26,0,0,0-.54-7.86,25.72,25.72,0,0,0-4.35-9.54"/></g></g></svg>