<svg xmlns="http://www.w3.org/2000/svg" viewBox="0 0 99 106.31"><defs><style>.cls-1{fill:#585858;}.cls-2{fill:#7ecaf6;stroke-width:5px;}.cls-2,.cls-3,.cls-4{stroke:#000;stroke-miterlimit:10;}.cls-3,.cls-4{stroke-width:4px;}.cls-4{fill:none;}</style></defs><title>wug_over_bubble</title><g id="Layer_2" data-name="Layer 2"><g id="Layer_1-2" data-name="Layer 1"><path class="cls-1" d="M5.73,73.84c5.34-4.61,8.43-9.44,9.19-14.38.52-3.39-.16-5.93-1.1-9.44a52.46,52.46,0,0,1-2.22-14.46c-.06-7.4,1.42-15.32,3.76-20.17a21.39,21.39,0,0,1,1.11-2C7.4,14.15.23,21.23.23,29.79V76.12a15.12,15.12,0,0,0,.18,2.31Z"/><path class="cls-1" d="M63.7,79.86a32.54,32.54,0,0,1-8.93,1.64l-3.95.1c-.28,1.72-.64,3.4-1.06,5-.28,1.06-.6,2.14-1,3.23a16.29,16.29,0,0,1,3.56,1.61l1.87,1.14H65.82l.11-1.31a21.47,21.47,0,0,0-.45-6.5A21,21,0,0,0,63.7,79.86Z"/><path class="cls-1" d="M35.73,91.47a15.73,15.73,0,0,1,3.5-1.58,46.86,46.86,0,0,0,1.83-5.54q.33-1.24.58-2.52l-39.86,1a16.86,16.86,0,0,0,4.77,5.86L0,106.31,27.17,92.6h6.7Z"/><path class="cls-1" d="M81.12,13.31H72.61a4.57,4.57,0,0,0-.46,1.91c0,1.2.77,2.13,3.33,4.69a45.2,45.2,0,0,1,6.16,7.23c.45.67,10.85,16.66,4.86,32.59C84.73,64.47,80.75,71,71.91,76.15a30,30,0,0,1,2.35,6.66q.22,1,.38,2,.6-.18,1.21-.33a26.05,26.05,0,0,1,8.54-.68l2.49.21-.67,7.89c7.38-2,12.8-8.35,12.8-15.8V29.79C99,20.73,91,13.31,81.12,13.31Z"/><path class="cls-2" d="M74.22,4.08C48.38-.35,26.08,4.67,19.87,17.55c-2.11,4.38-3.31,11.65-3.26,18,.09,11.9,4.57,16.17,3.26,24.7-.67,4.38-3,10.6-10.87,17.4L54.65,76.5a29.57,29.57,0,0,0,11.21-2.84C68.32,72.53,78,68.08,81.83,58c5-13.25-3.64-27-4.35-28.07-4.61-7-10.23-9-10.33-14.6C67.07,10.62,70.87,6.71,74.22,4.08Z"/><ellipse cx="51.66" cy="25.69" rx="5.71" ry="4.77"/><path class="cls-3" d="M47,69.76a52.52,52.52,0,0,1-1.63,15.72,51.58,51.58,0,0,1-3.26,9"/><path class="cls-3" d="M38.08,95.31a11.38,11.38,0,0,1,12,0"/><path class="cls-4" d="M84,88.29a21.66,21.66,0,0,0-7.07.56,22,22,0,0,0-6.52,2.81,26,26,0,0,0-.54-7.86,25.72,25.72,0,0,0-4.35-9.54"/></g></g></svg>