<?xml version="1.0" standalone="no"?>
<!DOCTYPE svg PUBLIC "-//W3C//DTD SVG 20010904//EN"
 "http://www.w3.org/TR/2001/REC-SVG-20010904/DTD/svg10.dtd">
<svg version="1.0" xmlns="http://www.w3.org/2000/svg"
 width="551.000000pt" height="551.000000pt" viewBox="0 0 551.000000 551.000000"
 preserveAspectRatio="xMidYMid meet">
<metadata>
Created by potrace 1.11, written by Peter Selinger 2001-2013
</metadata>
<g transform="translate(0.000000,551.000000) scale(0.100000,-0.100000)"
fill="#000000" stroke="none">
<path d="M3367 5504 c-1 -1 -76 -4 -167 -8 -91 -3 -176 -8 -190 -10 -14 -2
-57 -7 -97 -11 -39 -3 -84 -8 -100 -11 -15 -2 -41 -6 -58 -9 -16 -2 -48 -7
-70 -10 -72 -11 -268 -56 -374 -86 -479 -137 -839 -380 -1027 -694 -55 -91
-133 -296 -159 -415 -23 -111 -45 -230 -50 -278 -4 -31 -8 -64 -10 -72 -18
-71 -25 -487 -11 -625 9 -89 32 -230 52 -320 9 -38 17 -77 19 -85 2 -8 17 -67
34 -130 35 -128 67 -270 77 -345 8 -57 8 -217 1 -255 -3 -14 -10 -54 -17 -88
-54 -295 -275 -627 -600 -901 -36 -30 -69 -60 -75 -66 -5 -6 -31 -28 -57 -49
-27 -21 -48 -41 -48 -45 0 -3 26 -5 57 -5 32 1 173 5 313 8 140 4 334 9 430
11 189 5 433 11 825 21 138 3 295 7 350 9 186 5 366 7 369 3 2 -1 -9 -66 -25
-143 -16 -77 -31 -156 -34 -175 -17 -106 -80 -310 -129 -422 l-24 -54 -84 -28
c-45 -15 -99 -37 -120 -49 l-36 -23 38 -62 c20 -34 39 -65 42 -68 3 -3 22 4
41 15 71 40 127 49 283 47 145 -1 151 -2 217 -33 l68 -32 35 54 c19 30 37 62
40 69 11 28 -160 98 -273 111 -68 9 -77 13 -65 28 13 16 87 242 116 357 32
124 58 254 71 363 l7 54 81 2 c197 4 384 11 415 16 17 3 49 8 70 11 95 15 186
38 290 73 l113 38 40 -68 c152 -256 214 -552 185 -886 -4 -51 -5 -93 -2 -93 3
0 45 25 92 55 228 148 427 208 680 208 l91 0 2 52 c1 29 4 65 7 79 4 24 2 26
-33 27 -117 5 -202 0 -318 -17 -78 -12 -213 -55 -340 -110 -6 -3 -11 11 -11
33 -4 209 -66 448 -170 656 -20 39 -46 85 -57 101 -12 17 -17 31 -11 33 6 2
63 33 126 69 508 289 808 718 863 1232 12 114 6 365 -10 422 -3 8 -7 31 -10
50 -18 132 -90 382 -147 510 -143 321 -232 449 -506 729 -142 145 -189 202
-218 268 -60 134 -27 296 92 453 76 99 138 158 328 309 54 43 83 73 75 76 -8
2 -97 18 -199 34 -191 31 -220 35 -305 46 -27 3 -64 8 -82 10 -17 3 -64 7
-105 11 -40 3 -89 7 -108 10 -73 7 -497 23 -503 18z"/>
</g>
</svg>
